<svg xmlns="http://www.w3.org/2000/svg" width="32" height="32" viewBox="0 0 32 32" fill="none">
  <g clip-path="url(#clip0_835_4213)">
    <path d="M14.0002 26H9.00015C8.0076 25.9988 7.02666 25.7865 6.12242 25.3772C5.21817 24.9679 4.4113 24.3711 3.75535 23.6262C3.09939 22.8813 2.60934 22.0054 2.31773 21.0566C2.02611 20.1079 1.9396 19.108 2.06392 18.1232C2.18824 17.1385 2.52055 16.1915 3.03881 15.345C3.55707 14.4985 4.24942 13.7718 5.06993 13.2133C5.89044 12.6548 6.82034 12.2772 7.79793 12.1055C8.77552 11.9338 9.77844 11.972 10.7402 12.2175" stroke="#6A6A6A" stroke-width="2" stroke-linecap="round" stroke-linejoin="round"/>
    <path d="M15 20L19 16L23 20" stroke="#6A6A6A" stroke-width="2" stroke-linecap="round" stroke-linejoin="round"/>
    <path d="M19 26V16" stroke="#6A6A6A" stroke-width="2" stroke-linecap="round" stroke-linejoin="round"/>
    <path d="M10 15.9996C10.0004 14.1968 10.4882 12.4277 11.4117 10.8794C12.3352 9.33105 13.6601 8.0612 15.2461 7.20418C16.8322 6.34715 18.6205 5.93483 20.4216 6.01085C22.2228 6.08686 23.97 6.64839 25.4782 7.636C26.9864 8.62361 28.1996 10.0006 28.9894 11.6212C29.7791 13.2418 30.1161 15.0457 29.9646 16.8422C29.8132 18.6386 29.1789 20.3607 28.1289 21.8261C27.0789 23.2916 25.6523 24.446 24 25.1671" stroke="#6A6A6A" stroke-width="2" stroke-linecap="round" stroke-linejoin="round"/>
  </g>
  <defs>
    <clipPath id="clip0_835_4213">
      <rect width="32" height="32" fill="white"/>
    </clipPath>
  </defs>
</svg>