<svg xmlns="http://www.w3.org/2000/svg" width="15" height="16" viewBox="0 0 15 16" fill="none">
  <path fill-rule="evenodd" clip-rule="evenodd" d="M0 3.07632C0 2.73645 0.275517 2.46094 0.615385 2.46094H14.1538C14.4937 2.46094 14.7692 2.73645 14.7692 3.07632C14.7692 3.41619 14.4937 3.69171 14.1538 3.69171H0.615385C0.275517 3.69171 0 3.41619 0 3.07632Z" fill="#6A6A6A"/>
  <path fill-rule="evenodd" clip-rule="evenodd" d="M5.53824 6.15332C5.8781 6.15332 6.15362 6.42884 6.15362 6.7687V11.6918C6.15362 12.0317 5.8781 12.3072 5.53824 12.3072C5.19837 12.3072 4.92285 12.0317 4.92285 11.6918V6.7687C4.92285 6.42884 5.19837 6.15332 5.53824 6.15332Z" fill="#6A6A6A"/>
  <path fill-rule="evenodd" clip-rule="evenodd" d="M9.23062 6.15332C9.57049 6.15332 9.846 6.42884 9.846 6.7687V11.6918C9.846 12.0317 9.57049 12.3072 9.23062 12.3072C8.89075 12.3072 8.61523 12.0317 8.61523 11.6918V6.7687C8.61523 6.42884 8.89075 6.15332 9.23062 6.15332Z" fill="#6A6A6A"/>
  <path fill-rule="evenodd" clip-rule="evenodd" d="M1.84683 2.46094C2.1867 2.46094 2.46221 2.73645 2.46221 3.07632V14.7686H12.3084V3.07632C12.3084 2.73645 12.5839 2.46094 12.9238 2.46094C13.2636 2.46094 13.5391 2.73645 13.5391 3.07632V14.7686C13.5391 15.095 13.4095 15.4081 13.1787 15.6389C12.9478 15.8697 12.6348 15.9994 12.3084 15.9994H2.46221C2.1358 15.9994 1.82274 15.8697 1.59193 15.6389C1.36112 15.4081 1.23145 15.095 1.23145 14.7686V3.07632C1.23145 2.73645 1.50696 2.46094 1.84683 2.46094Z" fill="#6A6A6A"/>
  <path fill-rule="evenodd" clip-rule="evenodd" d="M4.23311 0.540726C4.57933 0.194505 5.04891 0 5.53854 0H9.23084C9.72048 0 10.1901 0.194505 10.5363 0.540726C10.8825 0.886947 11.077 1.35652 11.077 1.84615V3.07692C11.077 3.41679 10.8015 3.69231 10.4616 3.69231C10.1217 3.69231 9.84623 3.41679 9.84623 3.07692V1.84615C9.84623 1.68294 9.78139 1.52642 9.66599 1.41101C9.55058 1.2956 9.39405 1.23077 9.23084 1.23077H5.53854C5.37533 1.23077 5.2188 1.2956 5.10339 1.41101C4.98799 1.52642 4.92315 1.68294 4.92315 1.84615V3.07692C4.92315 3.41679 4.64764 3.69231 4.30777 3.69231C3.9679 3.69231 3.69238 3.41679 3.69238 3.07692V1.84615C3.69238 1.35652 3.88689 0.886947 4.23311 0.540726Z" fill="#6A6A6A"/>
</svg>