<svg xmlns="http://www.w3.org/2000/svg" width="43" height="43" viewBox="0 0 43 43" fill="none">
  <path fill-rule="evenodd" clip-rule="evenodd" d="M20.1356 0.561534C20.8892 -0.187178 22.1108 -0.187178 22.8644 0.561534L42.4349 20.0074C43.1884 20.7561 43.1884 21.97 42.4349 22.7187C41.6814 23.4674 40.4597 23.4674 39.7062 22.7187L21.5 4.62852L3.29384 22.7187C2.54033 23.4674 1.31865 23.4674 0.565134 22.7187C-0.188378 21.97 -0.188378 20.7561 0.565134 20.0074L20.1356 0.561534ZM8.82051 21.6369C9.88614 21.6369 10.75 22.4953 10.75 23.5541V39.1656H15.9872V28.758C15.9872 27.6991 16.851 26.8408 17.9167 26.8408H25.6346C26.7002 26.8408 27.5641 27.6991 27.5641 28.758V39.1656H33.3526V23.5541C33.3526 22.4953 34.2164 21.6369 35.2821 21.6369C36.3477 21.6369 37.2115 22.4953 37.2115 23.5541V41.0828C37.2115 42.1416 36.3477 43 35.2821 43H25.6346C24.569 43 23.7051 42.1416 23.7051 41.0828V30.6752H19.8462V41.0828C19.8462 42.1416 18.9823 43 17.9167 43H8.82051C7.75489 43 6.89103 42.1416 6.89103 41.0828V23.5541C6.89103 22.4953 7.75489 21.6369 8.82051 21.6369Z" fill="#2D41FF"/>
</svg>