<svg xmlns="http://www.w3.org/2000/svg" width="25" height="25" viewBox="0 0 25 25" fill="none">
  <path d="M24.5607 13.5607L19.3115 18.8107C19.1722 18.9501 19.0069 19.0608 18.8249 19.1363C18.6429 19.2118 18.4478 19.2507 18.2507 19.2508C18.0537 19.2508 17.8586 19.2121 17.6765 19.1367C17.4945 19.0613 17.329 18.9508 17.1897 18.8114C17.0504 18.6721 16.9399 18.5066 16.8645 18.3245C16.7891 18.1424 16.7504 17.9473 16.7504 17.7502C16.7505 17.5531 16.7894 17.358 16.8649 17.176C16.9404 16.994 17.051 16.8286 17.1905 16.6893L19.8794 14H9.4986C9.10083 14 8.71936 13.842 8.43809 13.5607C8.15683 13.2794 7.99882 12.8978 7.99882 12.5C7.99882 12.1022 8.15683 11.7206 8.43809 11.4393C8.71936 11.158 9.10083 11 9.4986 11H19.8794L17.1905 8.31067C17.051 8.17142 16.9404 8.00605 16.8649 7.82401C16.7894 7.64198 16.7505 7.44686 16.7504 7.24978C16.7504 7.05271 16.7891 6.85755 16.8645 6.67547C16.9399 6.49338 17.0504 6.32794 17.1897 6.18859C17.329 6.04924 17.4945 5.93871 17.6765 5.86333C17.8586 5.78794 18.0537 5.74917 18.2508 5.74924C18.4478 5.74931 18.6429 5.78822 18.8249 5.86373C19.0069 5.93924 19.1722 6.04988 19.3115 6.18933L24.5607 11.4393C24.7 11.5786 24.8105 11.744 24.8858 11.926C24.9612 12.108 25 12.303 25 12.5C25 12.697 24.9612 12.892 24.8858 13.074C24.8105 13.256 24.7 13.4214 24.5607 13.5607ZM11.4983 22H2.99956V3H11.4983C11.8961 3 12.2775 2.84196 12.5588 2.56066C12.8401 2.27936 12.9981 1.89782 12.9981 1.5C12.9981 1.10218 12.8401 0.720644 12.5588 0.43934C12.2775 0.158035 11.8961 0 11.4983 0H2.49963C1.83691 0.000737475 1.20155 0.264366 0.732939 0.733047C0.264327 1.20173 0.000737366 1.83719 0 2.5V22.5C0.000737366 23.1628 0.264327 23.7983 0.732939 24.267C1.20155 24.7356 1.83691 24.9993 2.49963 25H11.4983C11.8961 25 12.2775 24.842 12.5588 24.5607C12.8401 24.2794 12.9981 23.8978 12.9981 23.5C12.9981 23.1022 12.8401 22.7206 12.5588 22.4393C12.2775 22.158 11.8961 22 11.4983 22Z" fill="#656565"/>
</svg>