<svg xmlns="http://www.w3.org/2000/svg" width="51" height="51" viewBox="0 0 51 51" fill="none">
  <path fill-rule="evenodd" clip-rule="evenodd" d="M35.0625 30.2812C35.0625 29.401 35.776 28.6875 36.6562 28.6875H43.0312C43.9115 28.6875 44.625 29.401 44.625 30.2812C44.625 31.1615 43.9115 31.875 43.0312 31.875H38.25V41.4375C38.25 42.3177 37.5365 43.0312 36.6562 43.0312C35.776 43.0312 35.0625 42.3177 35.0625 41.4375V30.2812Z" fill="#FF5C5C"/>
  <path fill-rule="evenodd" clip-rule="evenodd" d="M35.0625 36.6562C35.0625 35.776 35.776 35.0625 36.6562 35.0625H41.4375C42.3177 35.0625 43.0312 35.776 43.0312 36.6562C43.0312 37.5365 42.3177 38.25 41.4375 38.25H36.6562C35.776 38.25 35.0625 37.5365 35.0625 36.6562Z" fill="#FF5C5C"/>
  <path fill-rule="evenodd" clip-rule="evenodd" d="M7.96875 30.2812C7.96875 29.401 8.6823 28.6875 9.5625 28.6875H12.75C14.2294 28.6875 15.6482 29.2752 16.6943 30.3213C17.7404 31.3674 18.3281 32.7862 18.3281 34.2656C18.3281 35.745 17.7404 37.1639 16.6943 38.21C15.6482 39.2561 14.2294 39.8438 12.75 39.8438H11.1562V41.4375C11.1562 42.3177 10.4427 43.0312 9.5625 43.0312C8.6823 43.0312 7.96875 42.3177 7.96875 41.4375V30.2812ZM11.1562 36.6562H12.75C13.384 36.6562 13.9921 36.4044 14.4404 35.9561C14.8888 35.5077 15.1406 34.8997 15.1406 34.2656C15.1406 33.6316 14.8888 33.0235 14.4404 32.5752C13.9921 32.1269 13.384 31.875 12.75 31.875H11.1562V36.6562Z" fill="#FF5C5C"/>
  <path fill-rule="evenodd" clip-rule="evenodd" d="M20.7188 30.2812C20.7188 29.401 21.4323 28.6875 22.3125 28.6875H25.5C27.4021 28.6875 29.2263 29.4431 30.5713 30.7881C31.9163 32.1331 32.6719 33.9573 32.6719 35.8594C32.6719 37.7615 31.9163 39.5857 30.5713 40.9307C29.2263 42.2756 27.4021 43.0312 25.5 43.0312H22.3125C21.4323 43.0312 20.7188 42.3177 20.7188 41.4375V30.2812ZM23.9062 31.875V39.8438H25.5C26.5567 39.8438 27.5702 39.424 28.3174 38.6768C29.0646 37.9295 29.4844 36.9161 29.4844 35.8594C29.4844 34.8027 29.0646 33.7892 28.3174 33.042C27.5702 32.2948 26.5567 31.875 25.5 31.875H23.9062Z" fill="#FF5C5C"/>
  <path fill-rule="evenodd" clip-rule="evenodd" d="M8.90235 5.71485C9.50012 5.11708 10.3109 4.78125 11.1562 4.78125H30.2812C30.7039 4.78125 31.1093 4.94916 31.4082 5.24805L42.5645 16.4043C42.8633 16.7032 43.0312 17.1086 43.0312 17.5312V22.3125C43.0312 23.1927 42.3177 23.9062 41.4375 23.9062C40.5573 23.9062 39.8438 23.1927 39.8438 22.3125V18.1914L29.6211 7.96875L11.1563 7.96875L11.1562 22.3125C11.1562 23.1927 10.4427 23.9062 9.5625 23.9062C8.6823 23.9062 7.96875 23.1927 7.96875 22.3125V7.96875C7.96875 7.12337 8.30458 6.31262 8.90235 5.71485Z" fill="#1A1A1A"/>
  <path fill-rule="evenodd" clip-rule="evenodd" d="M30.2812 4.78125C31.1615 4.78125 31.875 5.4948 31.875 6.375V15.9375H41.4375C42.3177 15.9375 43.0312 16.651 43.0312 17.5312C43.0312 18.4115 42.3177 19.125 41.4375 19.125H30.2812C29.401 19.125 28.6875 18.4115 28.6875 17.5312V6.375C28.6875 5.4948 29.401 4.78125 30.2812 4.78125Z" fill="#1A1A1A"/>
</svg>