<svg xmlns="http://www.w3.org/2000/svg" width="43" height="43" viewBox="0 0 43 43" fill="none">
  <path fill-rule="evenodd" clip-rule="evenodd" d="M40.7478 20.8304C38.332 18.9057 35.2717 17.7555 31.9428 17.7555C31.2514 17.7555 30.0596 17.6596 29.3947 17.7555V13.3409L40.7478 13.4864V20.8304ZM18.2736 27.7878C17.9656 28.9483 17.8015 30.6394 17.8015 31.8968C17.8015 34.7529 18.6482 37.4112 20.1043 39.6345H15.1333V27.7878H18.2736ZM26.7049 18.7572C23.6595 19.9723 21.1356 22.2155 19.5621 25.058H15.1333V13.4864H26.7049V18.7572ZM12.6119 13.4864V25.058L1.25879 25.058V13.4864L12.6119 13.4864ZM12.6119 27.7878L1.25879 27.7878V31.63C1.25879 36.0508 4.84254 39.6345 9.26332 39.6345L12.6119 39.6345V27.7878ZM40.7478 11.005L29.3947 10.8595V0L32.7433 0.145494C37.1641 0.145494 40.7478 3.72924 40.7478 8.15002V11.005ZM26.7049 11.005V0.145494H15.1333V11.005H26.7049ZM12.6119 11.005V0.145491L9.26332 0.145494C4.84254 0.145494 1.25879 3.72924 1.25879 8.15002V11.005L12.6119 11.005Z" fill="#B3B3B3"/>
  <path fill-rule="evenodd" clip-rule="evenodd" d="M42.8025 31.4725C42.8025 37.7299 37.7299 42.8025 31.4725 42.8025C25.2152 42.8025 20.1426 37.7299 20.1426 31.4725C20.1426 25.2152 25.2152 20.1426 31.4725 20.1426C37.7299 20.1426 42.8025 25.2152 42.8025 31.4725ZM31.472 23.2326C32.0409 23.2326 32.502 23.6937 32.502 24.2626V31.5761L38.4508 32.2078C39.0164 32.2678 39.4263 32.7751 39.3663 33.3408C39.3062 33.9064 38.7989 34.3163 38.2333 34.2562L31.3785 33.5283C30.8535 33.4811 30.442 33.0399 30.442 32.5025V24.2626C30.442 23.6937 30.9032 23.2326 31.472 23.2326Z" fill="#B3B3B3"/>
</svg>