<svg xmlns="http://www.w3.org/2000/svg" width="43" height="37" viewBox="0 0 43 37" fill="none">
  <path d="M36.6594 27.6189V6.52098C36.6594 5.32194 36.1831 4.17201 35.3352 3.32416C34.4874 2.47632 33.3375 2 32.1384 2H6.51953" stroke="#1A1A1A" stroke-width="3" stroke-linecap="round" stroke-linejoin="round"/>
  <path d="M18.5742 14.0547H30.6302" stroke="#1A1A1A" stroke-width="3" stroke-linecap="round" stroke-linejoin="round"/>
  <path d="M18.5742 20.085H30.6302" stroke="#1A1A1A" stroke-width="3" stroke-linecap="round" stroke-linejoin="round"/>
  <path d="M3.50699 9.53497C3.50699 9.53497 2 8.40472 2 6.52098C2 5.32194 2.47632 4.17201 3.32416 3.32416C4.17201 2.47632 5.32194 2 6.52098 2C7.72002 2 8.86995 2.47632 9.71779 3.32416C10.5656 4.17201 11.042 5.32194 11.042 6.52098V30.6329C11.042 31.8319 11.5183 32.9818 12.3661 33.8297C13.214 34.6775 14.3639 35.1538 15.5629 35.1538M15.5629 35.1538C16.762 35.1538 17.9119 34.6775 18.7598 33.8297C19.6076 32.9818 20.0839 31.8319 20.0839 30.6329C20.0839 28.7491 18.5769 27.6189 18.5769 27.6189H39.6748C39.6748 27.6189 41.1818 28.7491 41.1818 30.6329C41.1818 31.8319 40.7055 32.9818 39.8577 33.8297C39.0098 34.6775 37.8599 35.1538 36.6608 35.1538H15.5629Z" stroke="#1A1A1A" stroke-width="3" stroke-linecap="round" stroke-linejoin="round"/>
</svg>