<svg xmlns="http://www.w3.org/2000/svg" width="48" height="51" viewBox="0 0 48 51" fill="none">
  <path d="M47.8343 23.9171C47.8343 37.1262 37.1262 47.8343 23.9171 47.8343C10.7081 47.8343 0 37.1262 0 23.9171C0 10.7081 10.7081 0 23.9171 0C37.1262 0 47.8343 10.7081 47.8343 23.9171Z" fill="#565DC0"/>
  <g filter="url(#filter0_d_509_5705)">
    <path d="M33.6609 18.6029C33.6609 23.9844 29.2983 28.3469 23.9169 28.3469C18.5354 28.3469 14.1729 23.9844 14.1729 18.6029C14.1729 13.2214 18.5354 8.85889 23.9169 8.85889C29.2983 8.85889 33.6609 13.2214 33.6609 18.6029Z" fill="url(#paint0_linear_509_5705)"/>
  </g>
  <g filter="url(#filter1_d_509_5705)">
    <path fill-rule="evenodd" clip-rule="evenodd" d="M7.76855 41.5579C9.82012 34.9451 16.2741 30.1172 23.9183 30.1172C31.5626 30.1172 38.0165 34.9451 40.0681 41.5579C35.813 45.4554 30.1434 47.8336 23.9183 47.8336C17.6933 47.8336 12.0237 45.4554 7.76855 41.5579Z" fill="url(#paint1_linear_509_5705)"/>
  </g>
  <defs>
    <filter id="filter0_d_509_5705" x="11.1729" y="6.85889" width="25.4883" height="25.4878" filterUnits="userSpaceOnUse" color-interpolation-filters="sRGB">
      <feFlood flood-opacity="0" result="BackgroundImageFix"/>
      <feColorMatrix in="SourceAlpha" type="matrix" values="0 0 0 0 0 0 0 0 0 0 0 0 0 0 0 0 0 0 127 0" result="hardAlpha"/>
      <feOffset dy="1"/>
      <feGaussianBlur stdDeviation="1.5"/>
      <feComposite in2="hardAlpha" operator="out"/>
      <feColorMatrix type="matrix" values="0 0 0 0 0.227451 0 0 0 0 0.25098 0 0 0 0 0.580392 0 0 0 1 0"/>
      <feBlend mode="normal" in2="BackgroundImageFix" result="effect1_dropShadow_509_5705"/>
      <feBlend mode="normal" in="SourceGraphic" in2="effect1_dropShadow_509_5705" result="shape"/>
    </filter>
    <filter id="filter1_d_509_5705" x="5.76855" y="27.1172" width="38.2998" height="23.7163" filterUnits="userSpaceOnUse" color-interpolation-filters="sRGB">
      <feFlood flood-opacity="0" result="BackgroundImageFix"/>
      <feColorMatrix in="SourceAlpha" type="matrix" values="0 0 0 0 0 0 0 0 0 0 0 0 0 0 0 0 0 0 127 0" result="hardAlpha"/>
      <feOffset dx="1"/>
      <feGaussianBlur stdDeviation="1.5"/>
      <feComposite in2="hardAlpha" operator="out"/>
      <feColorMatrix type="matrix" values="0 0 0 0 0 0 0 0 0 0 0 0 0 0 0 0 0 0 0.25 0"/>
      <feBlend mode="normal" in2="BackgroundImageFix" result="effect1_dropShadow_509_5705"/>
      <feBlend mode="normal" in="SourceGraphic" in2="effect1_dropShadow_509_5705" result="shape"/>
    </filter>
    <linearGradient id="paint0_linear_509_5705" x1="23.9169" y1="8.85889" x2="23.9169" y2="28.3469" gradientUnits="userSpaceOnUse">
      <stop stop-color="#A4ABFB"/>
      <stop offset="1" stop-color="#7D84EC"/>
    </linearGradient>
    <linearGradient id="paint1_linear_509_5705" x1="23.9183" y1="30.1172" x2="23.9183" y2="47.8336" gradientUnits="userSpaceOnUse">
      <stop stop-color="#A2A9FA"/>
      <stop offset="1" stop-color="#7E85EC"/>
    </linearGradient>
  </defs>
</svg>